<svg xmlns="http://www.w3.org/2000/svg" width="1200" height="675" viewBox="0 0 1200 675">
  <style>text{font-family:-apple-system,BlinkMacSystemFont,'Noto Sans CJK JP',sans-serif;fill:#1f2937}.tag{font-size:22px;fill:#475569;text-decoration:underline}.title{font-size:50px;font-weight:800}.p{font-size:28px}.sub{font-size:25px;fill:#475569}.bullet{fill:#e11d48}</style>
  <rect width="1200" height="675" fill="#f8fafc"/>
  <text x="1020" y="80" class="tag">マルチリージョン運用</text>
  <text x="90" y="155" class="title">ウェブフックの負荷分散</text>
  <g transform="translate(110 220)"><polygon points="0,0 14,9 0,18" class="bullet"/><text x="28" y="18" class="p">認証</text></g>
  <g transform="translate(170 275)"><polygon points="0,0 12,8 0,16" class="bullet"/><text x="24" y="16" class="sub">同期的</text></g>
  <g transform="translate(170 320)"><polygon points="0,0 12,8 0,16" class="bullet"/><text x="24" y="16" class="sub">入室時のユーザー体験に直結</text></g>
  <g transform="translate(110 390)"><polygon points="0,0 14,9 0,18" class="bullet"/><text x="28" y="18" class="p">イベント</text></g>
  <g transform="translate(170 445)"><polygon points="0,0 12,8 0,16" class="bullet"/><text x="24" y="16" class="sub">非同期を許容</text></g>
  <g transform="translate(170 490)"><polygon points="0,0 12,8 0,16" class="bullet"/><text x="24" y="16" class="sub">Amazon API Gateway、Amazon SQS を経由</text></g>
  <g transform="translate(170 535)"><polygon points="0,0 12,8 0,16" class="bullet"/><text x="24" y="16" class="sub">ECS サービスを分離</text></g>
  <g transform="translate(170 580)"><polygon points="0,0 12,8 0,16" class="bullet"/><text x="24" y="16" class="sub">認証処理側への負荷軽減</text></g>
</svg>
