<svg xmlns="http://www.w3.org/2000/svg" width="1200" height="675" viewBox="0 0 1200 675">
  <style>text{font-family:-apple-system,BlinkMacSystemFont,'Noto Sans CJK JP',sans-serif;fill:#1f2937}.tag{font-size:22px;fill:#475569;text-decoration:underline}.title{font-size:48px;font-weight:800}.p{font-size:26px}.sub{font-size:22px;fill:#334155}.bullet{fill:#e11d48}.cell{fill:#fff;stroke:#cbd5e1;stroke-width:2}.head{fill:#f1f5f9;stroke:#cbd5e1;stroke-width:2}</style>
  <rect width="1200" height="675" fill="#f8fafc"/>
  <text x="900" y="80" class="tag">設計時に意識していたポイント</text>
  <text x="90" y="140" class="title">コスト効率を意識した設計</text>
  <g transform="translate(110 195)"><polygon points="0,0 14,9 0,18" class="bullet"/><text x="28" y="18" class="p">Key-Value ストア</text></g>
  <g transform="translate(110 580)"><polygon points="0,0 14,9 0,18" class="bullet"/><text x="28" y="18" class="p">アクセス種別やサイズにより消費 Capacity Unit が変化する</text></g>
  <g transform="translate(140 245)">
    <rect x="0" y="0" width="240" height="50" class="head"/>
    <rect x="240" y="0" width="180" height="50" class="head"/>
    <rect x="420" y="0" width="240" height="50" class="head"/>
    <text x="50" y="34" class="sub" font-weight="700">Partition Key</text>
    <text x="290" y="34" class="sub" font-weight="700">Sort Key</text>
    <text x="500" y="34" class="sub" font-weight="700">Value</text>
    <rect x="0" y="50" width="240" height="48" class="cell"/><rect x="240" y="50" width="180" height="48" class="cell"/><rect x="420" y="50" width="240" height="48" class="cell"/>
    <text x="90" y="82" class="sub">Key01</text><text x="320" y="82" class="sub">0</text><text x="490" y="82" class="sub">Value01</text>
    <rect x="0" y="98" width="240" height="48" class="cell"/><rect x="240" y="98" width="180" height="48" class="cell"/><rect x="420" y="98" width="240" height="48" class="cell"/>
    <text x="90" y="130" class="sub">Key02</text><text x="320" y="130" class="sub">0</text><text x="490" y="130" class="sub">Value02</text>
    <rect x="0" y="146" width="240" height="48" class="cell"/><rect x="240" y="146" width="180" height="48" class="cell"/><rect x="420" y="146" width="240" height="48" class="cell"/>
    <text x="90" y="178" class="sub">Key03</text><text x="320" y="178" class="sub">0</text><text x="490" y="178" class="sub">Value03</text>
    <rect x="0" y="194" width="240" height="48" class="cell"/><rect x="240" y="194" width="180" height="48" class="cell"/><rect x="420" y="194" width="240" height="48" class="cell"/>
    <text x="90" y="226" class="sub">Key03</text><text x="320" y="226" class="sub">1</text><text x="490" y="226" class="sub">Value04</text>
  </g>
  <g transform="translate(830 380)">
    <text x="0" y="0" font-size="24" font-weight="700" fill="#dc2626">書き込みのコストが高い</text>
    <path d="M 0 20 L 60 80" stroke="#dc2626" stroke-width="3" fill="none" marker-end="url(#arr)"/>
    <defs><marker id="arr" markerWidth="10" markerHeight="10" refX="8" refY="5" orient="auto"><path d="M0,0 L10,5 L0,10 Z" fill="#dc2626"/></marker></defs>
  </g>
</svg>
